<?xml version="1.0" encoding="utf-8"?>
<!-- Generator: Adobe Illustrator 16.0.0, SVG Export Plug-In . SVG Version: 6.00 Build 0)  -->
<!DOCTYPE svg PUBLIC "-//W3C//DTD SVG 1.1//EN" "http://www.w3.org/Graphics/SVG/1.1/DTD/svg11.dtd">
<svg version="1.1" id="Layer_1" xmlns="http://www.w3.org/2000/svg" xmlns:xlink="http://www.w3.org/1999/xlink" x="0px" y="0px"
	 width="152px" height="152px" viewBox="0 0 152 152" enable-background="new 0 0 152 152" xml:space="preserve">
<g>
	<rect fill="#114835" width="152" height="152"/>
	<polygon fill="#FFFFFF" points="28.637,86.859 29.428,86.859 29.428,90.096 28.637,90.096 28.637,88.981 27.395,88.981 
		27.395,90.096 26.606,90.096 26.606,86.859 27.395,86.859 27.395,88.192 28.637,88.192 	"/>
	<path fill="#FFFFFF" d="M33.29,88.469c0,0.92-0.743,1.662-1.664,1.662c-0.915,0-1.662-0.742-1.662-1.662
		c0-0.916,0.747-1.666,1.662-1.666C32.547,86.803,33.29,87.553,33.29,88.469 M32.502,88.469c0-0.484-0.392-0.875-0.875-0.875
		c-0.478,0-0.873,0.391-0.873,0.875c0,0.482,0.395,0.871,0.873,0.871C32.11,89.34,32.502,88.951,32.502,88.469"/>
	<polygon fill="#FFFFFF" points="35.033,90.099 34.571,88.933 34.571,90.09 33.782,90.09 33.782,86.846 34.605,86.846 
		35.455,89.009 36.311,86.846 37.13,86.846 37.13,90.09 36.338,90.09 36.338,88.933 35.879,90.099 	"/>
	<polygon fill="#FFFFFF" points="37.847,86.852 40.389,86.852 40.389,87.644 38.638,87.644 38.638,88.078 40.009,88.078 
		40.009,88.867 38.638,88.867 38.638,89.299 40.389,89.299 40.389,90.088 37.847,90.088 	"/>
	<path fill="#FFFFFF" d="M43.338,87.774l0.014,0.032c0.059,0.107,0.168,0.146,0.274,0.181c0.246,0.079,0.505,0.137,0.746,0.237
		c0.098,0.041,0.197,0.094,0.285,0.153c0.126,0.091,0.238,0.2,0.309,0.339c0.128,0.251,0.12,0.563-0.013,0.819
		c-0.125,0.249-0.357,0.445-0.617,0.558c-0.261,0.111-0.552,0.139-0.832,0.119c-0.46-0.032-0.917-0.199-1.25-0.513l0.635-0.591
		c0.243,0.241,0.587,0.381,0.926,0.372c0.187-0.005,0.411-0.091,0.377-0.309c-0.006-0.019-0.008-0.032-0.014-0.041
		c-0.064-0.142-0.201-0.199-0.331-0.24c-0.204-0.071-0.419-0.112-0.623-0.183c-0.205-0.068-0.403-0.167-0.549-0.331
		c-0.153-0.161-0.232-0.385-0.232-0.608c0.005-0.225,0.093-0.445,0.247-0.607c0.161-0.188,0.393-0.3,0.636-0.363
		c0.298-0.084,0.613-0.09,0.915-0.027c0.31,0.061,0.61,0.194,0.859,0.395l-0.264,0.254c-0.117,0.117-0.243,0.234-0.363,0.35
		c-0.218-0.246-0.576-0.363-0.897-0.281C43.443,87.521,43.293,87.613,43.338,87.774"/>
	<polygon fill="#FFFFFF" points="48.379,86.852 48.379,87.638 47.354,87.638 47.354,90.096 46.566,90.096 46.566,87.638 
		45.542,87.638 45.542,86.852 	"/>
	<polygon fill="#FFFFFF" points="50.849,89.1 50.849,90.096 50.06,90.096 50.06,89.1 48.776,86.844 49.688,86.844 50.455,88.192 
		51.221,86.844 52.122,86.844 	"/>
	<polygon fill="#FFFFFF" points="53.399,89.305 55.197,89.305 55.197,90.099 52.607,90.099 52.607,86.852 53.399,86.852 	"/>
	<polygon fill="#FFFFFF" points="55.73,86.852 58.271,86.852 58.271,87.644 56.521,87.644 56.521,88.078 57.892,88.078 
		57.892,88.867 56.521,88.867 56.521,89.299 58.271,89.299 58.271,90.088 55.73,90.088 	"/>
	<path fill="#FFFFFF" d="M27.396,94.045c0,0.479,0.392,0.863,0.87,0.863c0.235,0,0.456-0.093,0.622-0.26l0.568,0.55
		c-0.316,0.322-0.739,0.505-1.189,0.505c-0.915,0-1.661-0.742-1.661-1.658c0-0.914,0.746-1.657,1.661-1.657
		c0.483,0,0.942,0.21,1.259,0.581l-0.6,0.514c-0.167-0.196-0.411-0.309-0.66-0.309C27.788,93.174,27.396,93.567,27.396,94.045"/>
	<path fill="#FFFFFF" d="M33.062,94.04c0,0.921-0.747,1.666-1.667,1.666c-0.915,0-1.662-0.745-1.662-1.666
		c0-0.915,0.747-1.663,1.662-1.663C32.315,92.377,33.062,93.125,33.062,94.04 M32.27,94.04c0-0.483-0.392-0.872-0.875-0.872
		c-0.478,0-0.873,0.389-0.873,0.872s0.395,0.874,0.873,0.874C31.878,94.914,32.27,94.523,32.27,94.04"/>
	<path fill="#FFFFFF" d="M36.787,94.04c0,0.921-0.747,1.666-1.667,1.666c-0.915,0-1.662-0.745-1.662-1.666
		c0-0.915,0.747-1.663,1.662-1.663C36.041,92.377,36.787,93.125,36.787,94.04 M35.995,94.04c0-0.483-0.392-0.872-0.875-0.872
		c-0.478,0-0.873,0.389-0.873,0.872s0.395,0.874,0.873,0.874C35.604,94.914,35.995,94.523,35.995,94.04"/>
	<polygon fill="#FFFFFF" points="38.864,93.754 40.121,95.67 39.179,95.67 38.331,94.379 38.106,94.639 38.106,95.67 37.318,95.67 
		37.318,92.434 38.106,92.434 38.106,93.417 38.955,92.418 39.99,92.418 	"/>
	<rect x="40.704" y="92.423" fill="#FFFFFF" width="0.792" height="3.239"/>
	<polygon fill="#FFFFFF" points="44.449,92.432 45.238,92.432 45.238,95.67 44.376,95.67 43.101,93.74 43.101,95.662 42.309,95.662 
		42.309,92.418 43.179,92.418 44.449,94.344 	"/>
	<path fill="#FFFFFF" d="M47.366,93.786h1.449v1.298l-0.109,0.114c-0.299,0.309-0.797,0.505-1.275,0.505
		c-0.915,0-1.658-0.742-1.658-1.658c0-0.914,0.743-1.657,1.658-1.657c0.483,0,0.942,0.213,1.262,0.579l-0.602,0.516
		c-0.168-0.193-0.408-0.306-0.66-0.306c-0.478,0-0.87,0.391-0.87,0.868c0,0.479,0.392,0.863,0.87,0.863
		c0.205,0,0.433-0.068,0.595-0.169v-0.164h-0.659V93.786z"/>
	<path fill="#FFFFFF" d="M52.396,64.53c0.427,1.066-0.856,8.632,0.556,8.889c1.284,0.213,2.524-4.145,2.524-4.145
		s0.211,0.086,0.681,0.34c-0.041,1.71-1.154,6.539-4.746,6.539c-1.75,0-2.989-2.095-2.903-3.635
		c-0.984,1.969-2.394,3.551-4.318,3.551c-3.418,0.043-4.83-5.173-1.667-9.575c1.667-2.349,4.448-2.649,5.516-1.497
		c1.065,1.155,1.065,2.308,1.11,1.967c0.254-1.751,0.428-2.819,0.428-2.819C49.533,64.145,51.839,63.502,52.396,64.53
		 M45.558,73.332c0.941,0.041,1.838-1.325,2.523-2.947c0.296-1.11,0.212-4.187-1.11-4.358
		C45.301,65.808,42.993,73.291,45.558,73.332"/>
	<path fill="#FFFFFF" d="M58.464,66.921c0.171,0.598,0.128,1.837,0.083,3.08c0.771-3.08,2.523-7.482,5.516-6.456
		c3.074,0.556,1.284,9.316,2.178,9.702c1.024,0.3,2.308-4.019,2.353-4.019c0.038,0,0.724,0.173,0.724,0.173s-1.152,6.241-3.717,6.58
		c-2.564,0.429-3.761-1.623-3.419-4.785c0.257-2.865,0.769-5.043,0.427-5.173c-1.11-0.383-2.822,5.812-3.29,7.866l-0.214,0.598
		c-0.341,0.983-0.641,1.281-1.368,1.412c-0.94,0.254-1.879-0.344-2.307-1.497c-0.769-2.183,0.344-8.42,0.299-8.42
		S57.994,65.168,58.464,66.921"/>
	<path fill="#FFFFFF" d="M80.43,75.167c0.727,0.814-0.811,1.753-2.18,1.456c-1.283-0.338-2.735-1.322-3.078-4.873
		c-0.898,2.994-2.649,4.534-4.787,4.062c-2.776-0.557-3.419-4.49-1.068-8.078c1.879-2.906,4.657-2.693,5.983-1.281
		c0.299-5.044,1.412-11.369,3.162-12.269c1.626-0.896,3.636,0.684,3.847,1.839c0.73,3.077-2.179,7.051-3.334,9.49
		c-0.213,3.331,0.216,9.23,1.284,9.654H80.43z M72.224,73.463c0.939,0.084,2.223-2.735,2.648-4.831
		c-0.171-0.686-0.98-3.119-2.394-0.386C71.413,70.341,70.898,73.375,72.224,73.463 M80.43,56.108
		c-0.215-0.213-0.469,0.427-0.641,1.367c-0.514,1.967-0.813,3.507-0.898,5.388C79.658,60.982,80.899,56.664,80.43,56.108"/>
	<path fill="#FFFFFF" d="M92.775,64.53c0.429,1.066-0.854,8.632,0.558,8.889c1.283,0.213,2.523-4.145,2.523-4.145
		s0.213,0.086,0.683,0.34c-0.044,1.71-1.152,6.539-4.747,6.539c-1.751,0-2.988-2.095-2.903-3.635
		c-0.984,1.969-2.394,3.551-4.318,3.551c-3.416,0.043-4.83-5.173-1.666-9.575c1.666-2.349,4.447-2.649,5.515-1.497
		c1.068,1.155,1.068,2.308,1.111,1.967c0.255-1.751,0.427-2.819,0.427-2.819C89.913,64.145,92.221,63.502,92.775,64.53
		 M85.939,73.332c0.939,0.041,1.839-1.325,2.526-2.947c0.292-1.11,0.207-4.187-1.114-4.358
		C85.681,65.808,83.377,73.291,85.939,73.332"/>
	<path fill="#FFFFFF" d="M98.845,66.921c0.169,0.598,0.131,1.837,0.084,3.08c0.773-3.08,2.521-7.482,5.515-6.456
		c3.075,0.556,1.283,9.316,2.18,9.702c1.021,0.3,2.308-4.019,2.349-4.019c0.044,0,0.727,0.173,0.727,0.173s-1.152,6.241-3.715,6.58
		c-2.567,0.429-3.766-1.623-3.419-4.785c0.257-2.865,0.765-5.043,0.426-5.173c-1.111-0.383-2.824,5.812-3.288,7.866l-0.219,0.598
		c-0.339,0.983-0.639,1.281-1.365,1.412c-0.942,0.254-1.882-0.344-2.309-1.497c-0.768-2.183,0.342-8.42,0.298-8.42
		S98.374,65.168,98.845,66.921"/>
	<path fill="#FFFFFF" d="M41.264,68.795c-1.118,0.014-2.618,0.034-3.645,0.034c0.412-0.509,0.823-1.069,1.243-1.715
		c3.627-5.527,5.428-17.859-0.28-19.007c-3.082-0.595-5.828,3.627-7.822,8.404l-0.053-1.018c-0.221-1.667-0.607-2.688-6.69-1.472
		c0,0-6.511,1.405-9.738,3.146c-1.486,1.852-1.177,4.545-0.269,5.956c0.302,0.464,1.013,0.796,1.31,0.43
		c3.812-4.71,9.752-8.167,11.66-8.284c0.408,1.943-1.585,7.28-2.162,9.599c-0.409,1.714-0.828,3.568-1.164,5.378
		c-0.534,2.965-0.899,5.844-0.913,7.88c-0.061,8.162,7.353,3.278,6.312,2.675c-0.321-0.187-0.508-0.505-0.676-1.063
		c-0.643-2.177-0.395-5.793,0.198-9.549c0.163-1.206,0.322-2.273,0.521-3.336c0.627-2.459,1.623-5.474,3.253-9.233
		c2.129-4.917,4.326-7.795,5.157-7.75c0.829,0.045,0.862,4.403-0.358,10.058c-1.222,5.658-3.138,8.724-3.138,8.724
		s-0.708,0-2.76,0.142c-2.05,0.142-3.753,1.953-1.941,3.431c1.34,1.111,3.705,1.202,6.552-1.445c1.343-0.073,3.583-0.201,5.06-0.406
		L41.264,68.795z"/>
	<path fill="#FFFFFF" d="M115.931,94.805c0.724,0.811-0.811,1.751-2.179,1.45c-1.281-0.341-2.737-1.321-3.076-4.87
		c-0.896,2.994-2.649,4.529-4.785,4.059c-2.777-0.555-3.419-4.481-1.07-8.073c1.885-2.905,4.659-2.692,5.984-1.28
		c0.298-5.043,1.409-11.368,3.16-12.264c1.625-0.896,3.632,0.686,3.846,1.835c0.729,3.078-2.18,7.052-3.333,9.489
		c-0.213,3.328,0.214,9.229,1.284,9.654H115.931z M107.727,93.095c0.944,0.085,2.223-2.731,2.649-4.825
		c-0.17-0.686-0.983-3.119-2.393-0.389C106.918,89.977,106.404,93.01,107.727,93.095 M115.931,75.749
		c-0.213-0.213-0.47,0.426-0.645,1.369c-0.511,1.964-0.809,3.504-0.896,5.381C115.161,80.621,116.4,76.306,115.931,75.749"/>
	<path fill="#FFFFFF" d="M119.7,89.036c-0.257,2.18-0.041,4.146,1.622,4.015c2.18-0.172,3.589-4.143,3.589-4.143
		s0.213,0.041,0.771,0.385c0.508,0.426-1.584,6.877-5.94,6.194c-3.329-0.426-4.785-4.228-2.816-8.63
		c1.666-3.549,4.742-4.958,6.533-3.205c1.625,1.579-0.3,3.543-1.023,4.059C121.71,88.396,120.728,88.738,119.7,89.036
		 M119.998,87.711c2.007-0.726,3.078-3.118,1.882-3.332C121.197,84.207,120.514,85.66,119.998,87.711"/>
	<path fill="#FFFFFF" d="M127.902,86.559c0.172,0.599,0.128,1.836,0.087,3.076c0.768-3.076,2.521-7.479,5.509-6.451
		c3.076,0.555,1.284,9.311,2.18,9.695c1.027,0.301,2.306-4.015,2.352-4.015c0.041,0,0.724,0.175,0.724,0.175
		s-1.152,6.235-3.714,6.574c-2.563,0.432-3.761-1.619-3.42-4.785c0.257-2.862,0.771-5.039,0.427-5.168
		c-1.112-0.385-2.819,5.81-3.289,7.861l-0.213,0.598c-0.344,0.986-0.642,1.281-1.368,1.406c-0.939,0.26-1.882-0.338-2.306-1.49
		c-0.772-2.18,0.342-8.418,0.298-8.418S127.433,84.806,127.902,86.559"/>
	<path fill="#FFFFFF" d="M104.05,88.867c0.047,0.383-1.105,4.182-2.562,4.141c-1.71-0.041-0.213-3.545-0.939-5.039
		c-0.809-1.666-3.759-2.221-3.63-2.265c0.084-0.044,1.412-3.761-0.942-3.802c-1.622-0.047-2.005,1.237-2.136,2.349
		c-0.131,1.24,0.388,1.753,1.199,2.052c-0.156,0.242-1.898,4.766-1.898,4.766c-0.467,1.063-1.099,2.09-1.734,1.98
		c-1.409-0.254-0.129-7.817-0.558-8.885c-0.555-1.024-2.863-0.383-2.818-0.383c0,0-0.171,1.068-0.429,2.818
		c-0.041,0.342-0.041-0.811-1.11-1.967c-1.068-1.154-3.846-0.852-5.512,1.498c-3.16,4.402-1.751,9.616,1.666,9.57
		c1.922,0,3.332-1.582,4.316-3.546c-0.087,1.538,1.153,3.633,2.906,3.633c1.934,0,3.13-1.407,3.841-2.97l0.292-0.666
		c0.011-0.035,0.03-0.068,0.041-0.104l1.898-4.692c0.128-0.263,0.251-0.503,0.336-0.669c0.087,0,0.213,0.041,0.297,0.041
		c2.652,0.855,0.729,3.375,0.429,5.427c-0.256,1.622,0.64,3.292,2.737,3.458c3.799,0.301,4.998-4.996,5.208-6.15
		C105.08,88.692,104.05,88.736,104.05,88.867 M86.534,90.017c-0.686,1.626-1.582,2.991-2.52,2.95
		c-2.564-0.044-0.254-7.521,1.409-7.307C86.75,85.832,86.834,88.91,86.534,90.017"/>
	<path fill="#FFFFFF" d="M80.4,90.735c-0.348-0.284-0.867-0.187-0.924-0.175l-0.17,0.035l-0.022,0.17
		c-0.003,0.014-0.187,1.332-0.635,2.564c-0.134,0.385-0.347,0.756-0.563,1.073c-0.215-1.876-0.599-3.354-0.813-3.81
		c-0.45-1.014-1.563-0.719-1.93-0.621c-0.039,0.006-0.067,0.018-0.067,0.018h-0.249l0.005,0.248c0.045,1.89-0.822,3.897-2.209,5.113
		c-0.752,0.658-2,1.385-3.669,1.125c-1.986-0.317-3.096-2.087-3.043-4.854c0.078-4.23,3.216-10.499,8.145-11.1
		c0.863-0.104,1.653,0.084,2.104,0.514c0.307,0.283,0.446,0.663,0.422,1.116c-0.168,2.923-2.514,4.19-3.515,4.597
		c-0.015,0.003-0.026,0.008-0.04,0.014c-0.44,0.02-0.582,0.232-0.624,0.363c-0.083,0.246,0.042,0.527,0.341,0.757
		c0.542,0.418,1.938,0.809,3.731-0.38c1.275-0.847,2.101-2.499,2.098-4.209c-0.006-1.59-0.729-2.975-1.991-3.807
		c-2.943-1.942-8.628-0.413-12.679,5.44c-1.906,2.761-2.989,7.503-1.236,10.849c0.747,1.423,2.333,3.116,5.658,3.116
		c2.632,0,4.979-1.237,6.447-3.365c-0.034,0.511-0.07,1.019-0.115,1.532c-0.163,0.102-0.341,0.213-0.534,0.334
		c-0.926,0.576-2.079,1.291-2.722,1.977c-1.076,1.145-1.113,2.125-0.954,2.748c0.214,0.844,0.923,1.532,1.887,1.846
		c0.409,0.137,0.854,0.219,1.313,0.219c1.404,0,2.912-0.762,3.699-2.977c0.459-1.278,0.684-2.811,0.66-4.545
		c1.862-1.666,2.476-4.477,2.476-5.271C80.683,91.041,80.528,90.836,80.4,90.735 M73.061,100.578
		c0.358-0.592,0.968-1.215,1.578-1.622c-0.283,1.64-0.873,2.688-1.337,2.985c-0.148,0.093-0.276,0.125-0.4,0.082
		c-0.214-0.068-0.257-0.18-0.268-0.219C72.583,101.666,72.572,101.321,73.061,100.578 M73.288,87.004h-0.003H73.288z"/>
</g>
</svg>
